# xmcd
#
# Track frame offsets: 
#        150
#        17945
#        26215
#        42552
#        53862
#        78862
#        99102
#        117590
#        129350
#        151252
#
# Disc length: 2201 seconds
#
# Revision: 5
# Processed by: cddbd v1.5.2PL0 Copyright (c) Steve Scherf et al.
# Submitted via: ExactAudioCopy v0.99pb5
#
DISCID=7a08970a
DTITLE=Slayer - (1994) Divine Intervention
DYEAR=1994
DGENRE=Thrash Metal
TTITLE0=Killing Fields
TTITLE1=Sex, Murder, Art
TTITLE2=Fictional Reality
TTITLE3=Dittohead
TTITLE4=Divine Intervention
TTITLE5=Circle Of Beliefs
TTITLE6=SS-3
TTITLE7=Serenity In Murder
TTITLE8=213
TTITLE9=Mind Control
EXTD=YEAR: 1994
EXTT0=
EXTT1=
EXTT2=
EXTT3=
EXTT4=
EXTT5=
EXTT6=
EXTT7=
EXTT8=
EXTT9=
PLAYORDER=
